<svg width="35" height="55" viewBox="0 0 35 55" fill="none" xmlns="http://www.w3.org/2000/svg">
<g clip-path="url(#clip0_1002_647)">
<path d="M25.1957 26.8351C25.2897 28.6283 25.1191 30.4618 24.6435 32.3C22.8794 39.1188 17.5627 44.668 10.9728 46.9998C8.21489 47.9757 5.36639 48.4438 2.40941 48.4118C1.72142 48.4048 0.657033 48.5658 0.280104 47.8152C0.105935 47.4684 0.101115 47.064 0.0999559 46.6758C0.0781437 39.3633 0.0563316 32.0509 0.0345194 24.7385C0.0236114 21.0822 0.012706 17.426 0.00179923 13.7698C-0.00386172 11.873 -0.00697737 9.44018 0.169441 7.65919C0.410796 5.22264 5.64802 6.64993 7.54105 7.05254C16.8338 9.02892 24.6998 17.3703 25.1957 26.8351V26.8351Z" fill="#E14817"/>
<path d="M19.1088 51.9768C19.2907 51.9768 19.4132 51.9773 19.5357 51.9767C23.5963 51.9545 27.6569 51.9332 31.7174 51.9087C32.136 51.9062 32.5356 51.955 32.8793 52.1997C33.3613 52.5428 33.5618 53.1345 33.3843 53.6735C33.2032 54.2231 32.7113 54.6138 32.0884 54.6267C30.5675 54.6584 29.046 54.67 27.5246 54.6777C23.3087 54.699 19.0929 54.7388 14.8772 54.786C12.7292 54.81 10.5812 54.836 8.43321 54.8623C6.65748 54.8841 4.48655 55.2692 2.81514 54.6469C2.21647 54.4241 0.646683 53.0648 0.754277 52.456C0.856224 51.8792 2.63651 52.1239 3.27745 52.0888C6.23891 51.9266 9.07134 52.1378 12.0078 51.4866C17.4615 50.2771 22.439 47.3331 26.1202 43.1264C28.8812 39.9714 30.6908 36.3816 31.5467 32.3825C33.491 23.2977 29.9127 14.0524 22.2039 8.23601C18.9309 5.76656 15.2304 4.12513 11.1179 3.30057C7.83067 2.64148 4.79395 2.94967 1.48579 3.00463C0.799025 3.01604 0.181793 2.53183 0.0812648 1.85139C-0.0819805 0.746443 1.22794 0.276307 2.25386 0.167896C11.1292 -0.769984 20.5292 2.24757 26.9095 8.56476C31.0044 12.6191 33.6073 17.3924 34.57 22.8974C35.9448 30.7584 34.0141 37.891 28.9055 44.2526C26.3556 47.428 23.1432 49.9064 19.3979 51.7799C19.3333 51.8123 19.2692 51.8456 19.2063 51.8808C19.1891 51.8905 19.1774 51.9085 19.1088 51.9768V51.9768Z" fill="#E14817"/>
</g>
<defs>
<clipPath id="clip0_1002_647">
<rect width="35" height="55" fill="white"/>
</clipPath>
</defs>
</svg>
