<svg width="64" height="28" viewBox="0 0 64 28" fill="none" xmlns="http://www.w3.org/2000/svg">
<g clip-path="url(#clip0_752_707)">
<path d="M22.2267 9.59441C22.2267 9.78726 22.2267 9.98012 22.2267 10.1489C22.2267 16.0069 17.7427 22.781 9.54632 22.781C6.99096 22.8051 4.67667 22.0819 2.67578 20.8042C3.01328 20.8524 3.37489 20.8524 3.7365 20.8524C5.83382 20.8524 7.76239 20.1533 9.28114 18.948C7.32846 18.8998 5.68917 17.6221 5.1106 15.8623C5.37578 15.9105 5.68917 15.9105 5.93025 15.9105C6.31596 15.9105 6.72578 15.8623 7.08739 15.7417C5.06239 15.356 3.49542 13.5239 3.49542 11.4024C3.49542 11.3542 3.49542 11.3542 3.49542 11.3542C4.0981 11.6917 4.79721 11.8846 5.52042 11.9087C4.31507 11.1132 3.51953 9.76316 3.51953 8.19619C3.51953 7.37655 3.7606 6.62923 4.12221 5.97834C6.31596 8.65423 9.59453 10.4382 13.2829 10.6069C13.2347 10.2694 13.1865 9.93191 13.1865 9.5703C13.2106 7.15959 15.1874 5.1828 17.6463 5.1828C18.9481 5.1828 20.0811 5.71316 20.9008 6.55691C21.9374 6.36405 22.8535 6.00244 23.7213 5.47209C23.3838 6.50869 22.6847 7.37655 21.7686 7.90691C22.6606 7.81048 23.5285 7.56941 24.324 7.2078C23.8419 8.17209 23.0704 8.94351 22.2267 9.59441Z" fill="#111111"/>
</g>
<g clip-path="url(#clip1_752_707)">
<path d="M45.148 23.7212H40.4953V9.73907H45.148V23.7212ZM42.8096 7.83461C41.2186 7.83461 40.2061 6.74979 40.2061 5.39979C40.2061 4.00157 41.2427 2.96497 42.8337 2.96497C44.4248 2.96497 45.4132 4.00157 45.4614 5.39979C45.4614 6.74979 44.4248 7.83461 42.8096 7.83461ZM61.9025 23.7212H57.2739V16.248C57.2739 14.3676 56.623 13.09 54.9114 13.09C53.6337 13.09 52.8623 13.9578 52.5248 14.8016C52.3802 15.115 52.3802 15.5248 52.3802 15.9587V23.7694H47.7275C47.7275 23.7694 47.7998 11.0891 47.7275 9.78729H52.3802V11.7641C53.0069 10.8239 54.1159 9.44979 56.5748 9.44979C59.6364 9.44979 61.9266 11.4748 61.9266 15.7418V23.7212H61.9025Z" fill="#111111"/>
</g>
<defs>
<clipPath id="clip0_752_707">
<rect width="27" height="27" fill="white" transform="translate(0 0.385498)"/>
</clipPath>
<clipPath id="clip1_752_707">
<rect width="27" height="27" fill="white" transform="translate(37 0.385498)"/>
</clipPath>
</defs>
</svg>
