<svg width="64" height="28" viewBox="0 0 64 28" fill="none" xmlns="http://www.w3.org/2000/svg">
<g clip-path="url(#clip0_752_793)">
<path d="M22.2267 10.188C22.2267 10.3808 22.2267 10.5737 22.2267 10.7424C22.2267 16.6005 17.7427 23.3746 9.54632 23.3746C6.99096 23.3987 4.67667 22.6755 2.67578 21.3978C3.01328 21.446 3.37489 21.446 3.7365 21.446C5.83382 21.446 7.76239 20.7469 9.28114 19.5415C7.32846 19.4933 5.68917 18.2157 5.1106 16.4558C5.37578 16.504 5.68917 16.504 5.93025 16.504C6.31596 16.504 6.72578 16.4558 7.08739 16.3353C5.06239 15.9496 3.49542 14.1174 3.49542 11.996C3.49542 11.9478 3.49542 11.9478 3.49542 11.9478C4.0981 12.2853 4.79721 12.4782 5.52042 12.5023C4.31507 11.7067 3.51953 10.3567 3.51953 8.78976C3.51953 7.97012 3.7606 7.2228 4.12221 6.5719C6.31596 9.2478 9.59453 11.0317 13.2829 11.2005C13.2347 10.863 13.1865 10.5255 13.1865 10.1639C13.2106 7.75315 15.1874 5.77637 17.6463 5.77637C18.9481 5.77637 20.0811 6.30672 20.9008 7.15047C21.9374 6.95762 22.8535 6.59601 23.7213 6.06565C23.3838 7.10226 22.6847 7.97012 21.7686 8.50047C22.6606 8.40405 23.5285 8.16297 24.324 7.80137C23.8419 8.76565 23.0704 9.53708 22.2267 10.188Z" fill="#111111"/>
</g>
<g clip-path="url(#clip1_752_793)">
<path d="M45.1483 24.3147H40.4956V10.3326H45.1483V24.3147ZM42.8099 8.42812C41.2188 8.42812 40.2063 7.34329 40.2063 5.99329C40.2063 4.59508 41.2429 3.55847 42.834 3.55847C44.425 3.55847 45.4134 4.59508 45.4617 5.99329C45.4617 7.34329 44.425 8.42812 42.8099 8.42812ZM61.9027 24.3147H57.2742V16.8415C57.2742 14.9612 56.6233 13.6835 54.9117 13.6835C53.634 13.6835 52.8625 14.5513 52.525 15.3951C52.3804 15.7085 52.3804 16.1183 52.3804 16.5522V24.3629H47.7277C47.7277 24.3629 47.8 11.6826 47.7277 10.3808H52.3804V12.3576C53.0072 11.4174 54.1161 10.0433 56.575 10.0433C59.6367 10.0433 61.9268 12.0683 61.9268 16.3353V24.3147H61.9027Z" fill="#111111"/>
</g>
<defs>
<clipPath id="clip0_752_793">
<rect width="27" height="27" fill="white" transform="translate(0 0.979004)"/>
</clipPath>
<clipPath id="clip1_752_793">
<rect width="27" height="27" fill="white" transform="translate(37 0.979004)"/>
</clipPath>
</defs>
</svg>
