<svg width="64" height="38" viewBox="0 0 64 38" fill="none" xmlns="http://www.w3.org/2000/svg">
<g clip-path="url(#clip0_752_767)">
<path d="M22.2267 19.209C22.2267 19.4018 22.2267 19.5947 22.2267 19.7634C22.2267 25.6215 17.7427 32.3956 9.54632 32.3956C6.99096 32.4197 4.67667 31.6965 2.67578 30.4188C3.01328 30.467 3.37489 30.467 3.7365 30.467C5.83382 30.467 7.76239 29.7679 9.28114 28.5625C7.32846 28.5143 5.68917 27.2366 5.1106 25.4768C5.37578 25.525 5.68917 25.525 5.93025 25.525C6.31596 25.525 6.72578 25.4768 7.08739 25.3563C5.06239 24.9706 3.49542 23.1384 3.49542 21.017C3.49542 20.9688 3.49542 20.9688 3.49542 20.9688C4.0981 21.3063 4.79721 21.4991 5.52042 21.5233C4.31507 20.7277 3.51953 19.3777 3.51953 17.8108C3.51953 16.9911 3.7606 16.2438 4.12221 15.5929C6.31596 18.2688 9.59453 20.0527 13.2829 20.2215C13.2347 19.884 13.1865 19.5465 13.1865 19.1849C13.2106 16.7741 15.1874 14.7974 17.6463 14.7974C18.9481 14.7974 20.0811 15.3277 20.9008 16.1715C21.9374 15.9786 22.8535 15.617 23.7213 15.0866C23.3838 16.1233 22.6847 16.9911 21.7686 17.5215C22.6606 17.425 23.5285 17.184 24.324 16.8224C23.8419 17.7866 23.0704 18.5581 22.2267 19.209Z" fill="#111111"/>
</g>
<path d="M42.148 34.3357H37.4953V20.3536H42.148V34.3357ZM39.8096 18.4491C38.2186 18.4491 37.2061 17.3643 37.2061 16.0143C37.2061 14.6161 38.2427 13.5795 39.8337 13.5795C41.4248 13.5795 42.4132 14.6161 42.4614 16.0143C42.4614 17.3643 41.4248 18.4491 39.8096 18.4491ZM58.9025 34.3357H54.2739V26.8625C54.2739 24.9821 53.623 23.7045 51.9114 23.7045C50.6337 23.7045 49.8623 24.5723 49.5248 25.4161C49.3802 25.7295 49.3802 26.1393 49.3802 26.5732V34.3839H44.7275C44.7275 34.3839 44.7998 21.7036 44.7275 20.4018H49.3802V22.3786C50.0069 21.4384 51.1159 20.0643 53.5748 20.0643C56.6364 20.0643 58.9266 22.0893 58.9266 26.3563V34.3357H58.9025Z" fill="#111111"/>
<defs>
<clipPath id="clip0_752_767">
<rect width="27" height="27" fill="white" transform="translate(0 10)"/>
</clipPath>
</defs>
</svg>
