<svg width="64" height="27" viewBox="0 0 64 27" fill="none" xmlns="http://www.w3.org/2000/svg">
<g clip-path="url(#clip0_752_901)">
<path d="M22.2267 9.20897C22.2267 9.40183 22.2267 9.59468 22.2267 9.76343C22.2267 15.6215 17.7427 22.3956 9.54632 22.3956C6.99096 22.4197 4.67667 21.6965 2.67578 20.4188C3.01328 20.467 3.37489 20.467 3.7365 20.467C5.83382 20.467 7.76239 19.7679 9.28114 18.5625C7.32846 18.5143 5.68917 17.2366 5.1106 15.4768C5.37578 15.525 5.68917 15.525 5.93025 15.525C6.31596 15.525 6.72578 15.4768 7.08739 15.3563C5.06239 14.9706 3.49542 13.1384 3.49542 11.017C3.49542 10.9688 3.49542 10.9688 3.49542 10.9688C4.0981 11.3063 4.79721 11.4991 5.52042 11.5233C4.31507 10.7277 3.51953 9.37772 3.51953 7.81076C3.51953 6.99111 3.7606 6.24379 4.12221 5.5929C6.31596 8.26879 9.59453 10.0527 13.2829 10.2215C13.2347 9.88397 13.1865 9.54647 13.1865 9.18486C13.2106 6.77415 15.1874 4.79736 17.6463 4.79736C18.9481 4.79736 20.0811 5.32772 20.9008 6.17147C21.9374 5.97861 22.8535 5.61701 23.7213 5.08665C23.3838 6.12326 22.6847 6.99111 21.7686 7.52147C22.6606 7.42504 23.5285 7.18397 24.324 6.82236C23.8419 7.78665 23.0704 8.55808 22.2267 9.20897Z" fill="#111111"/>
</g>
<g clip-path="url(#clip1_752_901)">
<path d="M45.1483 23.3357H40.4956V9.35358H45.1483V23.3357ZM42.8099 7.44911C41.2188 7.44911 40.2063 6.36429 40.2063 5.01429C40.2063 3.61607 41.2429 2.57947 42.834 2.57947C44.425 2.57947 45.4134 3.61607 45.4617 5.01429C45.4617 6.36429 44.425 7.44911 42.8099 7.44911ZM61.9027 23.3357H57.2742V15.8625C57.2742 13.9821 56.6233 12.7045 54.9117 12.7045C53.634 12.7045 52.8625 13.5723 52.525 14.4161C52.3804 14.7295 52.3804 15.1393 52.3804 15.5732V23.3839H47.7277C47.7277 23.3839 47.8 10.7036 47.7277 9.40179H52.3804V11.3786C53.0072 10.4384 54.1161 9.06429 56.575 9.06429C59.6367 9.06429 61.9268 11.0893 61.9268 15.3563V23.3357H61.9027Z" fill="#111111"/>
</g>
<defs>
<clipPath id="clip0_752_901">
<rect width="27" height="27" fill="white"/>
</clipPath>
<clipPath id="clip1_752_901">
<rect width="27" height="27" fill="white" transform="translate(37)"/>
</clipPath>
</defs>
</svg>
