<svg width="27" height="27" viewBox="0 0 27 27" fill="none" xmlns="http://www.w3.org/2000/svg">
<g clip-path="url(#clip0_752_779)">
<path d="M8.14826 23.3357H3.49558V9.35358H8.14826V23.3357ZM5.80987 7.44911C4.2188 7.44911 3.2063 6.36429 3.2063 5.01429C3.2063 3.61607 4.24291 2.57947 5.83398 2.57947C7.42505 2.57947 8.41344 3.61607 8.46166 5.01429C8.46166 6.36429 7.42505 7.44911 5.80987 7.44911ZM24.9027 23.3357H20.2742V15.8625C20.2742 13.9821 19.6233 12.7045 17.9117 12.7045C16.634 12.7045 15.8625 13.5723 15.525 14.4161C15.3804 14.7295 15.3804 15.1393 15.3804 15.5732V23.3839H10.7277C10.7277 23.3839 10.8 10.7036 10.7277 9.40179H15.3804V11.3786C16.0072 10.4384 17.1161 9.06429 19.575 9.06429C22.6367 9.06429 24.9268 11.0893 24.9268 15.3563V23.3357H24.9027Z" fill="#111111"/>
</g>
<defs>
<clipPath id="clip0_752_779">
<rect width="27" height="27" fill="white"/>
</clipPath>
</defs>
</svg>
