<svg width="32" height="36" viewBox="0 0 32 36" fill="none" xmlns="http://www.w3.org/2000/svg">
<path d="M8.1576 6.47048C8.22926 6.43705 8.30831 6.41562 8.38545 6.41121C8.54115 6.39812 8.69236 6.44527 8.80695 6.53856C8.92096 6.63218 8.9887 6.76678 8.99801 6.91492C8.99801 6.91492 9.26032 7.68939 9.54303 9.02739C10.4621 13.3568 10.6956 17.836 10.2393 22.3233L9.98098 24.1143C9.98679 24.1877 9.97663 24.2637 9.94808 24.3367C9.92214 24.4089 9.88247 24.4755 9.82789 24.5343C9.77418 24.5933 9.71049 24.6411 9.6371 24.6783C9.56543 24.7117 9.48636 24.7332 9.40922 24.7376C8.38499 24.8451 7.68503 19.2927 7.59726 18.3066C7.44034 16.669 7.25232 13.0941 7.33551 11.4384C7.41492 9.97014 7.57554 8.49801 7.8137 7.03449C7.80789 6.96107 7.81807 6.88506 7.84662 6.81211C7.87256 6.73991 7.91224 6.67334 7.96682 6.61453C8.02082 6.55605 8.08479 6.50733 8.1576 6.47048Z" fill="white"/>
<path d="M29.7923 22.1434C29.8387 22.2074 29.8747 22.2809 29.8937 22.3558C29.936 22.5062 29.9184 22.6636 29.8485 22.7938C29.7782 22.9235 29.6589 23.0156 29.5152 23.0528C29.5152 23.0528 28.8045 23.4571 27.5443 23.9883C23.4676 25.7114 19.1138 26.7897 14.6215 27.1922L12.814 27.2781C12.743 27.2977 12.6664 27.3021 12.5894 27.2879C12.5135 27.2761 12.4407 27.2498 12.3726 27.2074C12.3045 27.1658 12.2454 27.1123 12.195 27.0473C12.1486 26.9833 12.1126 26.9097 12.0936 26.8348C11.7939 25.8495 17.1129 24.1098 18.0645 23.8367C19.6427 23.3722 23.1172 22.51 24.7586 22.2778C26.2153 22.0775 27.6912 21.9562 29.1733 21.9126C29.2443 21.893 29.3209 21.8886 29.3979 21.9028C29.4737 21.9146 29.5466 21.9409 29.6147 21.9833C29.6824 22.0253 29.7423 22.0789 29.7923 22.1434Z" fill="white"/>
<path d="M21.2527 9.81294C21.3303 9.82818 21.4068 9.85748 21.4717 9.89939C21.6052 9.98061 21.6995 10.1078 21.7371 10.2508C21.774 10.3936 21.7493 10.5422 21.6695 10.6674C21.6695 10.6674 21.4248 11.4476 20.8643 12.695C19.0543 16.7339 16.6022 20.4896 13.5882 23.8451L12.3237 25.1394C12.2851 25.2022 12.2321 25.2576 12.166 25.2997C12.1025 25.3427 12.0312 25.3731 11.9524 25.3884C11.8743 25.4044 11.7946 25.4055 11.7134 25.3923C11.6358 25.377 11.5593 25.3477 11.4944 25.3058C10.6037 24.7888 13.3117 19.8913 13.8221 19.0431C14.6609 17.6278 16.6166 14.6293 17.6599 13.341C18.5896 12.2019 19.5872 11.1075 20.6424 10.0658C20.681 10.003 20.734 9.94765 20.8001 9.90555C20.8636 9.86252 20.9349 9.83214 21.0137 9.81682C21.0918 9.80142 21.1721 9.79978 21.2527 9.81294Z" fill="white"/>
</svg>
